<svg width="9" height="10" viewBox="0 0 9 10" fill="none" xmlns="http://www.w3.org/2000/svg">
<path fill-rule="evenodd" clip-rule="evenodd" d="M0.25 4.15888C0.25 1.85895 2.17194 0 4.49672 0C6.82806 0 8.75 1.85895 8.75 4.15888C8.75 5.31785 8.3285 6.39381 7.63475 7.30579C6.8694 8.31176 5.92608 9.18823 4.86427 9.87621C4.62126 10.0352 4.40194 10.0472 4.13522 9.87621C3.06737 9.18823 2.12404 8.31176 1.36525 7.30579C0.670992 6.39381 0.25 5.31785 0.25 4.15888ZM3.09711 4.28838C3.09711 5.05885 3.72583 5.66483 4.49672 5.66483C5.26812 5.66483 5.90289 5.05885 5.90289 4.28838C5.90289 3.5239 5.26812 2.88842 4.49672 2.88842C3.72583 2.88842 3.09711 3.5239 3.09711 4.28838Z" fill="#42A8C3"/>
</svg>
